# xmcd
#
# Track frame offsets: 
#        150
#        17376
#        33128
#        49663
#        68634
#        83468
#        100337
#        114982
#        135183
#        153710
#        172323
#        188209
#        207024
#        222377
#        239543
#        256987
#        273586
#        291442
#        306712
#        322403
#        338150
#
# Disc length: 4726 seconds
#
# Revision: 0
# Processed by: cddbd v1.5.2PL0 Copyright (c) Steve Scherf et al.
# Submitted via: ExactAudioCopy v0.99pb4
#
DISCID=39127415
DTITLE=Various Artist - MNM Party 2016 CD 2 - 90's Party Flash Backs
DYEAR=2016
DGENRE=Dance
TTITLE0=Ultimate Kaos - Casanova
TTITLE1=Milk Inc. - In My Eyes
TTITLE2=Snap! - Rhythm Is A Dancer
TTITLE3=Luniz - I Got 5 On It
TTITLE4=Robin S. - Show Me Love
TTITLE5=Crystal Waters - Gypsy Woman
TTITLE6=Kris Kross - Jump
TTITLE7=Vanilla Ice - Ice Ice Baby
TTITLE8=Warren G and Nate Dogg - Regulate
TTITLE9=Run-D.M.C. Vs. Jason Nevins - It's Like That
TTITLE10=Cypress Hill - Insane In The Brain
TTITLE11=Adamski - Killer
TTITLE12=Mark Morrison - Return Of The Mack
TTITLE13=Reel 2 Real Feat. The Mad Stuntman - I Like To Move It
TTITLE14=Monifah - Touch It
TTITLE15=Wamdue Project - King Of My Castle (Roy Malone Kings Mix)
TTITLE16=Virtual Zone - Virtual Zone
TTITLE17=Bucketheads - The Bomb!
TTITLE18=Nightcrawlers - Push The Feeling On
TTITLE19=Funky Green Dogs - Fired Up!
TTITLE20=Sash! - Encore Une Fois
EXTD=
EXTT0=
EXTT1=
EXTT2=
EXTT3=
EXTT4=
EXTT5=
EXTT6=
EXTT7=
EXTT8=
EXTT9=
EXTT10=
EXTT11=
EXTT12=
EXTT13=
EXTT14=
EXTT15=
EXTT16=
EXTT17=
EXTT18=
EXTT19=
EXTT20=
PLAYORDER=
